<svg id="d8439961-3374-4dd3-b19c-fd4dceea816d" data-name="4a362d94-1bf9-4d70-aa78-5574b9b48daf" xmlns="http://www.w3.org/2000/svg" width="182.23" height="170.17" viewBox="0 0 182.23 170.17"><title>creamNG-logo</title><path d="M60.08,48.7H122a8.78,8.78,0,0,1,8.84,8.72v.08h0a8.77,8.77,0,0,1-8.77,8.79h-62a8.79,8.79,0,0,1-8.8-8.78h0a8.8,8.8,0,0,1,8.78-8.8Z" style="fill:#d769a8"/><path d="M71.3,24.35h39.64a8.8,8.8,0,0,1,8.8,8.78h0A8.79,8.79,0,0,1,111,41.93H71.3a8.78,8.78,0,0,1-8.79-8.79h0a8.79,8.79,0,0,1,8.79-8.79Z" style="fill:#45abbc"/><path d="M96.55,17.58h-11a8.83,8.83,0,0,1-8.79-8.79h0C91.08,2.19,87.51,4.18,96.57,0h0a8.84,8.84,0,0,1,8.8,8.79h0A8.84,8.84,0,0,1,96.55,17.58Z" style="fill:#ed9c21"/><path d="M125,73H57.08A6.11,6.11,0,0,0,51,79.08h0l7.33,43.27a6.11,6.11,0,0,0,6.11,6.11h53.25a6.12,6.12,0,0,0,6.26-6v-.16l7.33-43.27a6.11,6.11,0,0,0-6.1-6.11ZM102.5,98.7c-4.53,0-5.41-1.88-5.41-1.88a6.21,6.21,0,0,0-5.87-3.57,6.74,6.74,0,0,0-5.15,2.15,7.62,7.62,0,0,0-2,5.49,7.37,7.37,0,0,0,2,5.49,7,7,0,0,0,9.9.1.94.94,0,0,0,.1-.1,7.16,7.16,0,0,0,1.26-1.69s.58-1.77,5.11-1.77,5.37,1.77,5.37,1.77a17.74,17.74,0,0,1-4.87,8.87,16,16,0,0,1-11.52,4.3A17.06,17.06,0,0,1,79.06,88.73a16.89,16.89,0,0,1,12.36-5,16.29,16.29,0,0,1,12.06,4.87,18.32,18.32,0,0,1,4.45,8.3A6.82,6.82,0,0,1,102.5,98.7Z" style="fill:#6cbe45"/><path d="M17.63,149.8a7.2,7.2,0,0,0-3.48-1,6.87,6.87,0,0,0-3.61,1A7.07,7.07,0,0,0,8,152.53a8.46,8.46,0,0,0,0,7.74A7,7,0,0,0,10.54,163a6.78,6.78,0,0,0,3.61,1,7.82,7.82,0,0,0,3.36-.82,10.6,10.6,0,0,0,3.14-2.24l4,4.3a16,16,0,0,1-5.07,3.57,14.08,14.08,0,0,1-12.85-.45,13.13,13.13,0,0,1-4.94-4.9,13.73,13.73,0,0,1-1.79-7,13.06,13.06,0,0,1,6.85-11.7,14.87,14.87,0,0,1,12.92-.54,14.32,14.32,0,0,1,4.82,3.31l-4,4.79A9.69,9.69,0,0,0,17.63,149.8Z" style="fill:#45abbc"/><path d="M36.94,150.12a7.61,7.61,0,0,1,3.79-.94v6.09h-1a6.18,6.18,0,0,0-3.81,1.1,4.24,4.24,0,0,0-1.68,3V169.7H27.57V149.44h6.66v3.36A7.33,7.33,0,0,1,36.94,150.12Z" style="fill:#45abbc"/><path d="M58.45,162.41l3.74,3.36a11.57,11.57,0,0,1-9.27,4.11,12.33,12.33,0,0,1-5.72-1.27A9.33,9.33,0,0,1,43.37,165,10.42,10.42,0,0,1,42,159.7a11.07,11.07,0,0,1,1.31-5.46A9.23,9.23,0,0,1,47,150.58a11.59,11.59,0,0,1,5.59-1.31,11.27,11.27,0,0,1,5.23,1.16,8.69,8.69,0,0,1,3.53,3.35,10.38,10.38,0,0,1,1.33,5.08L49.2,162.12a4.6,4.6,0,0,0,1.65,2,4.4,4.4,0,0,0,2.54.73A6.75,6.75,0,0,0,58.45,162.41Zm-8.51-7.31a5.26,5.26,0,0,0-1.21,3.35l7.51-1.87a3.69,3.69,0,0,0-1.23-2,3.32,3.32,0,0,0-2.13-.67,3.79,3.79,0,0,0-2.93,1.2Z" style="fill:#45abbc"/><path d="M86.3,149.44V169.7H79.65v-2.55a7.15,7.15,0,0,1-2.56,2.07,7.57,7.57,0,0,1-3.38.73,9.25,9.25,0,0,1-5-1.31A8.79,8.79,0,0,1,65.4,165a12.35,12.35,0,0,1-1.18-5.48,11.91,11.91,0,0,1,1.16-5.38,8.43,8.43,0,0,1,3.33-3.59,9.42,9.42,0,0,1,4.94-1.27,7.67,7.67,0,0,1,3.4.75,7.38,7.38,0,0,1,2.58,2.09v-2.62Zm-8,14.06a5,5,0,0,0,1.35-3.18V159a5.11,5.11,0,0,0-1.35-3.18,3.92,3.92,0,0,0-3-1.2,4,4,0,0,0-3.16,1.4,6.26,6.26,0,0,0,0,7.33,4,4,0,0,0,3.16,1.4A3.93,3.93,0,0,0,78.3,163.5Z" style="fill:#45abbc"/><path d="M123.65,151.27a7.84,7.84,0,0,1,2,5.65V169.7H119V158.83a3.89,3.89,0,0,0-.9-2.71,3.13,3.13,0,0,0-2.43-1,3.54,3.54,0,0,0-2.79,1.29,5,5,0,0,0-1,3.27v10h-6.65V158.83a3.89,3.89,0,0,0-.9-2.71,3.13,3.13,0,0,0-2.43-1,3.56,3.56,0,0,0-2.8,1.29,5,5,0,0,0-1,3.27v10H91.48V149.44H98.1v3.33a7.1,7.1,0,0,1,2.63-2.67,7.89,7.89,0,0,1,3.87-.92,7.33,7.33,0,0,1,4.22,1.2,6.54,6.54,0,0,1,2.5,3.33,7.27,7.27,0,0,1,2.79-3.38,7.88,7.88,0,0,1,4.28-1.14A6.92,6.92,0,0,1,123.65,151.27Z" style="fill:#45abbc"/><path d="M149.85,144.25a8.06,8.06,0,0,1,3.16,3.36,10.83,10.83,0,0,1,1.12,5V169.7h-7V154.3a5.15,5.15,0,0,0-1.22-3.62,4.34,4.34,0,0,0-3.36-1.38,5.2,5.2,0,0,0-4,1.64,5.85,5.85,0,0,0-1.55,4.15V169.7h-6.85V143.46H137v3.81a9.27,9.27,0,0,1,3.46-3.12,10.24,10.24,0,0,1,4.73-1.1A9,9,0,0,1,149.85,144.25Z" style="fill:#45abbc"/><path d="M176.07,156.06H182V169.7h-5v-1.77a13.26,13.26,0,0,1-3.2,1.64,10,10,0,0,1-3.42.6,13,13,0,0,1-6.77-1.78,12.84,12.84,0,0,1-4.86-4.87,14,14,0,0,1-1.74-7,13.06,13.06,0,0,1,7-11.74,15.3,15.3,0,0,1,7.35-1.76,17.15,17.15,0,0,1,5.89,1.07,15.75,15.75,0,0,1,5,2.86l-3.88,4.75a11,11,0,0,0-3.25-2.13,9.22,9.22,0,0,0-3.66-.79,7.25,7.25,0,0,0-6.43,3.78,8.06,8.06,0,0,0-1,3.93,8.54,8.54,0,0,0,.92,4,7,7,0,0,0,2.52,2.79,6.6,6.6,0,0,0,3.59,1,6.27,6.27,0,0,0,2.73-.62A7,7,0,0,0,176,162Z" style="fill:#45abbc"/></svg>